<?xml version="1.0" encoding="utf-8"?>
<!-- Generator: Adobe Illustrator 22.0.1, SVG Export Plug-In . SVG Version: 6.00 Build 0)  -->
<svg version="1.1" id="Layer_1" xmlns="http://www.w3.org/2000/svg" xmlns:xlink="http://www.w3.org/1999/xlink" x="0px" y="0px"
	 viewBox="0 0 640 190" style="enable-background:new 0 0 640 190;" xml:space="preserve">
<style type="text/css">
	.st0{fill:#F2F2F2;}
</style>
<g>
	<path class="st0" d="M121.3,36.6c0,2.1-0.2,3.2-0.7,3.2c-0.2,0-0.3-0.1-0.3-0.2c0-0.3,0.1-0.7,0.2-1.3c0.1-0.6,0.2-1.1,0.2-1.4
		c0-3.5-1.2-6.3-3.7-8.6c-2.5-2.2-5.6-3.4-9.5-3.4c-7.6,0-15.3,5-23,14.8c-2.4,3.1-7.2,10.5-14.2,22.3c-2,3.4-4.1,6.5-6.2,9.1
		c-2.1,2.7-3.5,4-4.2,4c-0.4,0-0.6-0.2-0.6-0.6c0-0.5,0.6-1,1.7-1.6c2.2-1,3.3-3.6,3.3-7.8c0-0.8-0.1-2.1-0.2-3.9
		c-0.3-4.5-0.4-8.4-0.4-11.7c0-5.4,0.5-9.9,1.6-13.4c1.1-3.5,2.8-6.6,5.3-9.3c0.1-0.1,0.1-0.2,0.2-0.3c-0.8-0.1-2.5,1.5-5.2,4.8
		c-1.4,1.7-2.7,3.6-3.8,5.4c-1.1,1.9-4.1,7.1-8.8,15.6c-4.1,7.3-8.8,13-14.2,17c-5.4,4-11,6-16.9,6c-3.3,0-6-0.7-8.1-2.2
		c-2.1-1.5-3.2-3.4-3.2-5.7c0-1.3,0.4-2.4,1.1-3.3c0.8-0.9,1.7-1.3,2.8-1.3c1.6,0,2.5,0.8,2.5,2.4c0,0.8-0.3,1.6-0.8,2.1
		c-0.5,0.6-1.2,0.9-1.9,0.9c-1.2,0-1.9-0.7-1.9-2.1c0-0.5-0.1-0.8-0.3-0.8c-0.4,0-0.6,0.7-0.6,2.1c0,2.1,1,3.8,3,5.1s4.5,2,7.6,2
		c5.9,0,11.3-2.2,16.4-6.6c5-4.4,10.8-12.1,17.3-23c5.3-8.9,9.5-14.7,12.7-17.5c2.2-1.9,3.6-2.8,4.2-2.8c0.1,0,0.2,0.1,0.2,0.2
		c0,0.1-0.2,0.3-0.5,0.7c-1.6,2.2-2.6,4.4-3,6.9s-0.7,7.6-0.9,15.5c-0.2,9.7-1.4,16.6-3.6,20.7c-0.1,0-0.1,0.1-0.1,0.2l0.1,0.1
		c0.5,0,4.3-6.4,11.5-19.1c5.3-9.3,10.3-16,15.2-20.1c4.9-4.1,10.2-6.2,15.8-6.2c4,0,7.4,1.2,10,3.7
		C119.9,29.7,121.3,32.8,121.3,36.6z M60.4,33.9c0,0.6-0.7,1.6-2.2,3.3c-2.2,2.5-4.3,3.7-6.3,3.7c-1.4,0-2.6-0.5-3.5-1.5
		c-1-1-1.4-2.3-1.4-3.8c0-1.4,0.5-3.2,1.6-5.2c1.3-2.5,1.9-4.3,1.9-5.4c0-1.3-0.6-2.3-1.8-3.1c-1.2-0.8-2.8-1.2-4.8-1.2
		c-5.6,0-10.9,2.3-15.9,6.8c-5,4.6-7.4,9.4-7.4,14.5c0,2.7,0.8,4.8,2.5,6.5c1.6,1.7,3.7,2.5,6.3,2.5c2.3,0,4.6-0.7,6.9-2
		c2.3-1.3,4.2-3,5.7-5c0.1-0.1,0.2-0.2,0.2-0.2c0.2,0,0.3,0.1,0.3,0.3c0,0.5-0.8,1.5-2.4,2.9c-3.3,3-7,4.5-10.9,4.5
		c-2.7,0-5-0.9-6.7-2.7c-1.7-1.8-2.6-4.1-2.6-6.9c0-5.5,2.5-10.5,7.6-15.1c5.1-4.6,10.6-6.9,16.6-6.9c2.5,0,4.4,0.6,5.8,1.9
		c1.4,1.2,2.1,2.9,2.1,5.1c0,1.6-0.8,4.1-2.4,7.4c-0.6,1.2-0.8,2.1-0.8,2.8c0,1.9,1,2.9,3.1,2.9c1.2,0,2.6-0.6,4.2-1.8
		c1.5-1.2,2.8-2.7,3.7-4.4c0.1-0.3,0.3-0.4,0.4-0.4C60.3,33.6,60.4,33.7,60.4,33.9z"/>
	<path class="st0" d="M101,62c0,0.4-0.7,1.4-2.2,2.8c-2.2,2.2-4.3,3.3-6.2,3.3c-0.8,0-1.5-0.2-2.1-0.5c-3.3,4.7-6.5,7.1-9.4,7.1
		c-1.5,0-2.8-0.6-3.9-1.9c-1.1-1.3-1.6-2.8-1.6-4.5c0-3.9,2.6-7.7,7.7-11.3c3.6-2.6,6.6-3.8,8.9-3.8c2.2,0,3.3,1.2,3.3,3.5
		c0,2.9-1.5,6.4-4.6,10.5c0.5,0.3,1.1,0.5,1.7,0.5c1.1,0,2.5-0.5,4-1.6c1.5-1.1,2.8-2.3,3.7-3.8c0.3-0.4,0.5-0.5,0.6-0.5
		C100.9,61.9,101,61.9,101,62z M94.8,56.9c0-2.1-0.9-3.1-2.8-3.1c-2.3,0-5.1,2.2-8.4,6.6c-3.3,4.4-5,8.1-5,11.1
		c0,1.7,0.8,2.6,2.5,2.6c2.7,0,5.7-2.3,9-6.8c-0.7-0.8-1.1-1.6-1.1-2.5c0-1.2,0.5-2.5,1.5-3.8c1-1.3,1.9-2,2.9-2
		c0.4,0,0.7,0.3,0.8,0.8C94.6,59,94.8,58,94.8,56.9z"/>
	<path class="st0" d="M122.3,62c0,0.3-0.8,1.3-2.4,2.9c-2.2,2.3-4.1,3.5-5.8,3.5c-1.1,0-2-0.6-2.8-1.8c-2.3,3.1-4.1,5.3-5.5,6.5
		c-1.4,1.2-2.8,1.8-4.3,1.8c-1.3,0-2.4-0.4-3.3-1.3c-0.9-0.9-1.3-2-1.3-3.2c0-1.5,0.8-3.7,2.5-6.5l6-10.1c1.2,0.1,2.1,0.2,2.5,0.2
		c0.9,0,1.7-0.1,2.2-0.2l-7.9,12.8c-1.7,2.9-2.6,4.9-2.6,6c0,1.2,0.7,1.8,2,1.8c1.2,0,2.5-0.6,3.8-1.7c1.3-1.1,3.2-3.3,5.6-6.5
		c-0.2-0.8-0.3-1.4-0.3-2c0-2.3,0.7-4.7,2.1-7.1c1.4-2.4,2.8-3.6,4.1-3.6c0.6,0,0.9,0.4,0.9,1.1c0,1.9-2.1,5.8-6.3,11.7
		c0.5,1.1,1.4,1.7,2.5,1.7c1.9,0,4.3-1.7,7-5.1c0.5-0.6,0.8-0.9,1-0.9C122.2,61.9,122.3,61.9,122.3,62z"/>
	<path class="st0" d="M141.4,62.1c0,0.1-0.2,0.4-0.7,1l-1.6,2c-5.2,6.5-9.7,9.7-13.5,9.7c-1.8,0-3.3-0.6-4.5-1.9
		c-1.2-1.3-1.8-2.9-1.8-4.8c0-4.6,3.2-8.6,9.5-12c3.3-1.8,6.1-2.7,8.2-2.7c0.9,0,1.7,0.3,2.3,0.8c0.6,0.5,1,1.2,1,2
		c0,1.8-1.2,3.4-3.6,4.7c-2.4,1.3-6.4,2.5-11.9,3.6c-1.7,2.6-2.6,4.8-2.6,6.5c0,2.2,1.2,3.3,3.5,3.3c4,0,8.9-3.9,14.7-11.7
		c0.3-0.4,0.6-0.6,0.8-0.6C141.4,61.9,141.4,62,141.4,62.1z M138.2,55.1c0-0.8-0.4-1.2-1.3-1.2c-1.3,0-3.1,0.9-5.3,2.8
		c-2.2,1.9-4.3,4.3-6.4,7.2c3.6-0.9,6.7-2.3,9.3-4C136.9,58.2,138.2,56.6,138.2,55.1z"/>
	<path class="st0" d="M171.8,62.1c0,0.5-1.8,3-5.5,7.4c-3,3.6-5.4,5.4-7.1,5.4c-1.1,0-2.1-0.4-2.9-1.3c-0.8-0.9-1.2-2-1.2-3.3
		c0-1.1,0.2-2.2,0.7-3.2c0.5-1,1.7-2.9,3.7-5.8c2.1-3,3.1-5,3.1-5.8c0-1-0.5-1.6-1.6-1.6c-3.7,0-9.4,6.9-17.1,20.6
		c-1.2-0.1-2-0.2-2.2-0.2c-0.9,0-1.7,0.1-2.5,0.2l5.9-9.4c3.4-5.4,5-8.7,5-10.1c0-0.8-0.3-1.1-1-1.1c-1.3,0-3.8,2.7-7.6,8.2
		c-0.2,0.3-0.4,0.5-0.5,0.5c-0.1,0-0.2-0.1-0.2-0.2c0-0.1,0.1-0.2,0.2-0.3l0.7-1c3.9-5.2,6.5-7.8,7.8-7.8c0.9,0,1.6,0.4,2.2,1.2
		c0.6,0.8,0.9,1.7,0.9,2.8c0,1.6-0.9,3.9-2.8,6.8c3-4.1,5.3-6.9,6.9-8.5c1.6-1.5,3.1-2.3,4.5-2.3c1.1,0,2.1,0.5,2.8,1.4
		c0.8,0.9,1.1,2,1.1,3.4c0,1.7-1.2,4.3-3.5,7.8c-2.4,3.6-3.6,5.8-3.6,6.8c0,1,0.5,1.6,1.6,1.6c2.3,0,6.1-4,11.7-12.1
		c0.1-0.3,0.3-0.4,0.4-0.4C171.7,61.9,171.8,61.9,171.8,62.1z"/>
	<path class="st0" d="M198.5,62.1c0,0.5-1.9,3-5.5,7.4c-3,3.6-5.3,5.4-7.1,5.4c-1.2,0-2.1-0.4-2.9-1.3c-0.7-0.9-1.1-2-1.1-3.3
		c0-1.4,0.4-2.8,1.2-4.4c-2.5,3.5-4.5,5.9-5.8,7.2c-1.3,1.2-2.6,1.9-3.9,1.9c-1.3,0-2.5-0.6-3.4-1.7c-0.9-1.2-1.4-2.6-1.4-4.3
		c0-4.9,3.4-9.2,10.3-12.9c3-1.7,5.4-2.5,7.3-2.5c1.6,0,2.4,0.8,2.4,2.3c0,0.4-0.1,1-0.3,1.7l1.9-3.7c0.8,0.2,1.4,0.3,2,0.3
		c0.7,0,1.6-0.1,2.7-0.3l-6.7,11.1c-2.3,3.9-3.5,6.5-3.5,7.7c0,1.2,0.5,1.8,1.5,1.8c1,0,2.6-1.2,4.9-3.5c2.2-2.3,4.5-5.2,6.8-8.6
		c0.2-0.3,0.3-0.4,0.4-0.4C198.4,61.9,198.5,61.9,198.5,62.1z M188,55.8c0-1.2-0.6-1.9-1.7-1.9c-2.3,0-5.4,2.3-9.2,6.8
		c-3.8,4.6-5.7,8.2-5.7,11c0,1.6,0.7,2.5,2.2,2.5c1.7,0,4.8-2.9,9.1-8.7C186.3,60.8,188,57.6,188,55.8z"/>
	<path class="st0" d="M220.2,62.1c0,0.2-0.8,1.1-2.3,2.8c-1.9,2.1-3.7,3.2-5.4,3.2c-1.9,0-2.9-1.1-2.9-3.3c0-0.7,0.2-1.6,0.5-2.7
		c-1.6,1.4-2.9,2.8-3.9,4.1c-1,1.4-2.7,4.2-5.2,8.4c-1.3-0.1-2.1-0.2-2.4-0.2c-0.1,0-0.9,0.1-2.3,0.2l6.2-10.1
		c3.1-5.1,4.7-8.2,4.7-9.4c0-0.7-0.3-1.1-0.9-1.1c-1.4,0-4,2.7-7.7,8.2c-0.2,0.4-0.4,0.5-0.6,0.5c-0.1,0-0.2-0.1-0.2-0.2
		c0-0.1,0.1-0.2,0.2-0.3l0.7-1c3.9-5.2,6.6-7.8,7.9-7.8c2,0,3,1.3,3,3.9c0,1.9-1,4.5-3.1,7.7c1.3-1.5,2.6-2.8,3.8-3.7
		c1-2.3,2.2-4.1,3.6-5.7c1.4-1.5,2.7-2.3,3.9-2.3c0.8,0,1.2,0.3,1.2,1c0,1.2-1.8,2.9-5.3,5.2c-0.6,0.4-1.4,0.9-2.5,1.6l-0.5,0.4
		c-0.4,1.2-0.5,2.1-0.5,2.9c0,2.1,0.8,3.2,2.4,3.2c2,0,4.1-1.6,6.5-4.9c0.5-0.6,0.8-0.8,1-0.8C220.1,61.9,220.2,61.9,220.2,62.1z"/>
	<path class="st0" d="M233.2,62.1c0,0.1-0.2,0.3-0.4,0.6l-1.6,2.2c-4.8,6.6-8.4,9.9-10.9,9.9c-1.2,0-2.2-0.4-3-1.3
		c-0.8-0.8-1.2-1.9-1.2-3.2c0-1.5,0.9-3.7,2.6-6.7l5.9-10.1c0.8,0.2,1.4,0.3,1.9,0.3c0.7,0,1.6-0.1,2.9-0.3l-8.6,14.2
		c-1.2,2-1.9,3.6-1.9,4.7c0,1.1,0.6,1.7,1.8,1.7c2.3,0,6.2-4,11.9-12.1c0.1-0.3,0.3-0.4,0.4-0.4C233.1,61.9,233.2,61.9,233.2,62.1z
		 M232.6,46.4c0,0.9-0.4,1.7-1.1,2.5c-0.7,0.8-1.6,1.2-2.4,1.2c-1.1,0-1.7-0.6-1.7-1.7c0-0.8,0.4-1.6,1.2-2.4
		c0.8-0.8,1.6-1.2,2.5-1.2C232.1,44.8,232.6,45.3,232.6,46.4z"/>
	<path class="st0" d="M255.7,62c0,0.4-0.7,1.4-2.2,2.8c-2.2,2.2-4.3,3.3-6.2,3.3c-0.8,0-1.5-0.2-2.1-0.5c-3.3,4.7-6.5,7.1-9.4,7.1
		c-1.5,0-2.8-0.6-3.9-1.9c-1.1-1.3-1.6-2.8-1.6-4.5c0-3.9,2.6-7.7,7.7-11.3c3.6-2.6,6.6-3.8,8.9-3.8c2.2,0,3.3,1.2,3.3,3.5
		c0,2.9-1.5,6.4-4.6,10.5c0.5,0.3,1.1,0.5,1.7,0.5c1.1,0,2.5-0.5,4-1.6c1.5-1.1,2.8-2.3,3.7-3.8c0.3-0.4,0.5-0.5,0.6-0.5
		C255.7,61.9,255.7,61.9,255.7,62z M249.5,56.9c0-2.1-0.9-3.1-2.8-3.1c-2.3,0-5.1,2.2-8.4,6.6c-3.3,4.4-5,8.1-5,11.1
		c0,1.7,0.8,2.6,2.5,2.6c2.7,0,5.7-2.3,9-6.8c-0.7-0.8-1.1-1.6-1.1-2.5c0-1.2,0.5-2.5,1.5-3.8c1-1.3,1.9-2,2.9-2
		c0.4,0,0.7,0.3,0.8,0.8C249.3,59,249.5,58,249.5,56.9z"/>
	<path class="st0" d="M181.6,109.1c0,1.5-0.2,3-0.5,4.4c-0.3,1.4-0.7,2.1-1,2.1c-0.3,0-0.4-0.1-0.4-0.3c0-0.2,0.1-0.3,0.1-0.5
		c0.6-1.3,0.9-3.2,0.9-5.4c0-5.1-2-9.5-6.1-13c-4.1-3.6-9.1-5.3-15-5.3c-9.5,0-19.3,4.7-29.2,14c-3.9,3.7-7.3,7.2-10.2,10.7
		c-2.7,3.3-8.1,10.2-16.1,20.8c-11.8,15.6-21.4,25.4-29,29.2c-3.4,1.7-5.6,2.6-6.5,2.6c-0.2,0-0.3-0.1-0.3-0.4c0,0,0.4-0.3,1.2-0.9
		c3.8-2.8,6.8-6.6,9-11.3c2.1-4.4,5.8-14.7,11.2-30.9c4.6-13.9,9.8-23.8,15.7-29.8c0.2-0.2,0.3-0.4,0.3-0.6
		c-0.5-0.2-1.6,0.7-3.4,2.5c-5.7,5.7-12.5,15.9-20.2,30.7c-4.8,9.1-9,16-12.6,20.7c-3.6,4.7-7.9,8.8-12.9,12.3
		c-8.2,5.9-16.4,8.8-24.6,8.8c-5.4,0-9.7-1.1-13.1-3.4c-3.4-2.3-5.1-5.2-5.1-8.7c0-2,0.6-3.7,1.7-5.1c1.2-1.4,2.6-2.1,4.3-2.1
		c2.5,0,3.8,1.2,3.8,3.7c0,1.3-0.4,2.4-1.2,3.3c-0.8,0.9-1.8,1.4-3,1.4c-1.9,0-2.8-1-2.8-3.1c0-0.8-0.2-1.2-0.5-1.2
		c-0.6,0-0.9,1.1-0.9,3.2c0,3.2,1.6,5.7,4.7,7.8c3.1,2,7.2,3,12.1,3c10.1,0,19.9-5.2,29.6-15.7c3.9-4.2,7.2-8.3,9.9-12.3
		c2.7-4,8.1-12.7,16.1-26c3.4-5.7,7.2-10.8,11.5-15.4c4.3-4.6,7.3-6.9,9.1-6.9c0.3,0,0.4,0.1,0.4,0.3c0,0.2-0.1,0.3-0.2,0.5
		c-3.6,3.9-6.8,11.3-9.7,22.3c-4.3,16-8.4,27.6-12.2,34.9c-3.8,7.1-8.6,12.5-14.6,16.1c-0.2,0-0.2,0.1-0.2,0.2c0,0,0.1,0.1,0.2,0.1
		c0.9,0,3-1.2,6.5-3.7c4.2-2.9,8-6.4,11.5-10.5c3.5-4.1,9.9-12.4,19.1-25.1c6.5-8.9,11.7-15.5,15.5-19.6c3.8-4.1,8.1-7.8,12.7-11
		c7.3-4.9,14.6-7.3,22-7.3c6.5,0,11.8,1.9,16,5.7C179.6,98.5,181.6,103.3,181.6,109.1z M90.1,105.9c0,0.9-1.1,2.5-3.3,5
		c-3.3,3.7-6.5,5.6-9.6,5.6c-2.1,0-3.9-0.8-5.4-2.3c-1.5-1.6-2.2-3.5-2.2-5.7c0-2.2,0.8-4.8,2.4-7.9c2-3.9,2.9-6.6,2.9-8.1
		c0-2-0.9-3.5-2.8-4.7c-1.8-1.2-4.3-1.8-7.3-1.8c-8.6,0-16.7,3.5-24.2,10.4c-7.5,6.9-11.3,14.3-11.3,22.1c0,4,1.2,7.3,3.7,9.9
		c2.5,2.6,5.7,3.8,9.6,3.8c3.5,0,7-1,10.6-3c3.6-2,6.4-4.5,8.6-7.7c0.2-0.2,0.3-0.3,0.3-0.3c0.3,0,0.5,0.2,0.5,0.5
		c0,0.8-1.2,2.3-3.7,4.4c-5.1,4.6-10.6,6.9-16.5,6.9c-4.2,0-7.6-1.3-10.2-4c-2.6-2.7-3.9-6.2-3.9-10.5c0-8.4,3.9-16,11.6-23.1
		c7.7-7,16.2-10.5,25.3-10.5c3.8,0,6.7,0.9,8.9,2.8c2.1,1.9,3.2,4.5,3.2,7.8c0,2.5-1.2,6.2-3.7,11.3c-0.8,1.8-1.3,3.2-1.3,4.2
		c0,2.9,1.6,4.4,4.7,4.4c1.9,0,4-0.9,6.3-2.7c2.3-1.8,4.2-4,5.6-6.7c0.2-0.4,0.4-0.6,0.6-0.6C89.9,105.4,90.1,105.6,90.1,105.9z
		 M153.8,93.4c0,0.2-0.5,0.6-1.6,1.1c-4.5,2.4-8.5,5.8-11.9,10.3c-3.4,4.5-7.3,11.4-11.7,20.7c-6.4,13.6-12.1,23.3-17.1,29.2
		c-5,5.9-11.2,10.2-18.6,12.8c3.4,0.5,6.1,0.8,7.9,0.8c5.9,0,10.7-1.3,14.2-3.8c3.6-2.5,8.6-8.2,15.1-17c0.4-0.5,0.8-0.8,1-0.8
		c0.2,0,0.2,0.2,0.2,0.3c0,0.4-1.8,2.9-5.4,7.5c-4.4,5.6-8.4,9.5-11.9,11.5c-3.5,2-7.8,3.1-12.9,3.1c-3.2,0-6.6-0.4-10.2-1.1
		c-2.6,0.9-5.2,1.3-7.9,1.3c-2,0-3.1-0.4-3.1-1.2c0-1,1.4-1.4,4.3-1.4c1.6,0,3.7,0.2,6.2,0.6h0.8c4.1-1.5,7.5-3.8,10.4-7
		c2.8-3.2,6.2-8.5,10.2-16.1c8-15.3,14.4-26.1,19.1-32.5c4.5-6.1,10-11.3,16.4-15.6c3.2-2.1,5.3-3.2,6.2-3.2
		C153.7,93.1,153.8,93.2,153.8,93.4z"/>
	<path class="st0" d="M159.3,148.8c0,0.1-0.3,0.6-1,1.5l-2.5,3.1c-8,9.8-14.8,14.8-20.5,14.8c-2.7,0-5-1-6.8-2.9
		c-1.8-1.9-2.7-4.4-2.7-7.3c0-6.9,4.8-13,14.5-18.3c5.1-2.8,9.2-4.2,12.4-4.2c1.4,0,2.6,0.4,3.6,1.2c1,0.8,1.5,1.8,1.5,3
		c0,2.8-1.8,5.1-5.4,7.1c-3.6,1.9-9.7,3.8-18.1,5.5c-2.6,4-3.9,7.3-3.9,9.9c0,3.3,1.8,5,5.4,5c6.1,0,13.6-5.9,22.4-17.8
		c0.5-0.6,0.8-0.9,1.2-0.9C159.2,148.5,159.3,148.6,159.3,148.8z M154.4,138.1c0-1.2-0.7-1.8-2-1.8c-2,0-4.7,1.4-8.1,4.2
		c-3.3,2.8-6.6,6.5-9.8,11c5.5-1.4,10.2-3.4,14.1-6C152.5,142.8,154.4,140.4,154.4,138.1z"/>
	<path class="st0" d="M192.2,148.7c0,0.3-1.2,1.7-3.5,4.2c-2.9,3.2-5.7,4.9-8.3,4.9c-2.9,0-4.4-1.7-4.4-5.1c0-1.1,0.2-2.4,0.7-4.1
		c-2.4,2.1-4.4,4.2-5.9,6.3c-1.5,2.1-4.2,6.3-7.9,12.7c-2-0.2-3.2-0.2-3.6-0.2c-0.2,0-1.3,0.1-3.5,0.2l9.5-15.4
		c4.7-7.7,7.1-12.5,7.1-14.3c0-1.1-0.4-1.6-1.3-1.6c-2.2,0-6.1,4.1-11.8,12.4c-0.3,0.5-0.7,0.8-0.9,0.8c-0.2,0-0.2-0.2-0.2-0.3
		c0-0.2,0.1-0.3,0.2-0.5l1-1.4c5.9-7.9,10-11.9,12.1-11.9c3.1,0,4.6,2,4.6,6c0,3-1.6,6.9-4.7,11.8c2-2.3,3.9-4.2,5.7-5.7
		c1.5-3.4,3.3-6.3,5.5-8.6c2.2-2.3,4.1-3.5,5.9-3.5c1.2,0,1.8,0.5,1.8,1.6c0,1.8-2.7,4.5-8,7.9c-0.8,0.5-2.1,1.3-3.8,2.4l-0.7,0.6
		c-0.5,1.8-0.8,3.2-0.8,4.4c0,3.2,1.2,4.9,3.6,4.9c3,0,6.3-2.5,9.8-7.5c0.8-0.8,1.3-1.3,1.4-1.3
		C192.1,148.4,192.2,148.5,192.2,148.7z"/>
	<path class="st0" d="M220.8,148.7c0,0.5-2.7,3.7-8.2,9.7c-5.9,6.5-11,9.7-15.2,9.7c-2.7,0-5-1-6.9-3.1c-1.9-2.1-2.9-4.5-2.9-7.4
		c0-3.2,1.3-6.6,3.9-10.1c2.6-3.5,6.1-6.5,10.6-9c3.7-2.2,6.8-3.2,9.1-3.2c2.8,0,4.3,1.7,4.3,5.1c0,2.7-0.9,5.3-2.7,8
		c-1.8,2.7-3.6,4-5.3,4c-1.7,0-2.6-0.9-2.6-2.6c0-2,1.8-3.9,5.3-5.7c2.7-1.3,4.1-3.1,4.1-5.3c0-1.7-0.9-2.6-2.8-2.6
		c-3.2,0-7.1,3.2-11.8,9.5c-4.7,6.4-7,11.7-7,16c0,3.6,1.7,5.4,5.1,5.4c5.3,0,12.5-6,21.6-18c0.5-0.6,0.9-0.9,1.1-0.9
		C220.8,148.4,220.8,148.5,220.8,148.7z"/>
	<path class="st0" d="M250,148.8c0,0.1-0.3,0.6-1,1.5l-2.5,3.1c-8,9.8-14.8,14.8-20.5,14.8c-2.7,0-5-1-6.8-2.9
		c-1.8-1.9-2.7-4.4-2.7-7.3c0-6.9,4.8-13,14.5-18.3c5.1-2.8,9.2-4.2,12.4-4.2c1.4,0,2.6,0.4,3.6,1.2c1,0.8,1.5,1.8,1.5,3
		c0,2.8-1.8,5.1-5.4,7.1c-3.6,1.9-9.7,3.8-18.1,5.5c-2.6,4-3.9,7.3-3.9,9.9c0,3.3,1.8,5,5.4,5c6.1,0,13.6-5.9,22.4-17.8
		c0.5-0.6,0.8-0.9,1.2-0.9C249.9,148.5,250,148.6,250,148.8z M245.1,138.1c0-1.2-0.7-1.8-2-1.8c-2,0-4.7,1.4-8.1,4.2
		c-3.3,2.8-6.6,6.5-9.8,11c5.5-1.4,10.2-3.4,14.1-6C243.2,142.8,245.1,140.4,245.1,138.1z"/>
	<path class="st0" d="M302.4,108.4c-14.4,23-23.6,37.6-27.3,44c-3.8,6.5-5.7,10.6-5.7,12.3c0,1.7,0.8,2.6,2.4,2.6
		c3.5,0,9.5-6.1,17.9-18.3c0.2-0.4,0.4-0.6,0.6-0.6c0.2,0,0.3,0.1,0.3,0.3c0,0.1-0.2,0.4-0.6,0.9l-2.5,3.4
		c-7.3,10.1-12.7,15.1-16.1,15.1c-1.8,0-3.2-0.7-4.3-2c-1.1-1.3-1.7-3-1.7-5.1c0-2.1,0.7-4.5,2.1-7.2c-6.7,9.6-11.7,14.3-15,14.3
		c-2,0-3.8-0.9-5.1-2.6c-1.4-1.8-2.1-4-2.1-6.6c0-6.4,3.9-12.1,11.8-17.3c6.3-4.1,11.2-6.2,14.8-6.2c2.4,0,3.6,1.2,3.6,3.5
		c0,1.1-0.3,2.3-1,3.6l20.6-34.5c1.3,0.4,2.5,0.6,3.8,0.6C299.1,108.6,300.3,108.5,302.4,108.4z M274.5,139.4c0-2-0.9-3.1-2.8-3.1
		c-3.5,0-8,3.5-13.7,10.4c-5.7,6.9-8.5,12.5-8.5,16.7c0,2.6,1.1,3.9,3.2,3.9c3.1,0,8.4-5.4,15.9-16.1
		C272.5,145.5,274.5,141.5,274.5,139.4z"/>
	<path class="st0" d="M319.8,148.8c0,0.1-0.3,0.6-1,1.5l-2.5,3.1c-8,9.8-14.8,14.8-20.5,14.8c-2.7,0-5-1-6.8-2.9
		c-1.8-1.9-2.7-4.4-2.7-7.3c0-6.9,4.8-13,14.5-18.3c5.1-2.8,9.2-4.2,12.4-4.2c1.4,0,2.6,0.4,3.6,1.2c1,0.8,1.5,1.8,1.5,3
		c0,2.8-1.8,5.1-5.4,7.1c-3.6,1.9-9.7,3.8-18.1,5.5c-2.6,4-3.9,7.3-3.9,9.9c0,3.3,1.8,5,5.4,5c6.1,0,13.6-5.9,22.4-17.8
		c0.5-0.6,0.8-0.9,1.2-0.9C319.7,148.5,319.8,148.6,319.8,148.8z M314.9,138.1c0-1.2-0.7-1.8-2-1.8c-2,0-4.7,1.4-8.1,4.2
		c-3.3,2.8-6.6,6.5-9.8,11c5.5-1.4,10.2-3.4,14.1-6C313,142.8,314.9,140.4,314.9,138.1z"/>
	<path class="st0" d="M339.3,126.3c0,1.5-2.4,4.6-7.2,9.2c-0.2,1.2-0.3,2.2-0.3,3.1c0,2.2,1,5.8,3.1,10.6c1,2.4,1.6,4.5,1.6,6.1
		c0,3.5-1.7,6.5-5.1,9c-3.4,2.5-7.4,3.8-12,3.8c-2.6,0-4.7-0.7-6.3-2.2c-1.6-1.5-2.3-3.5-2.3-6c0-2.9,1-5.7,3.1-8.4
		c2.1-2.7,4.2-4.1,6.4-4.1c0.4,0,0.7,0.1,1,0.2l4.6-5.7c1.4-1.7,3.2-3.9,5.5-6.9c0.7-2.7,1.7-5,3-6.9c1.3-1.9,2.7-2.9,4-2.9
		C339,125.3,339.3,125.6,339.3,126.3z M331.3,149.1c0-1.2,0-2.3-0.1-3.4c-0.1-1.1-0.1-2.8-0.1-4.9c0-1.7,0.1-3.2,0.2-4.3
		c-2.2,2.7-5.3,6.6-9.4,11.6c0.7,0.6,1.1,1.4,1.1,2.3c0,2.3-1.9,3.8-5.6,4.6c-1.5,0.3-2.8,1.2-3.9,2.5c-1.1,1.3-1.6,2.6-1.6,4.1
		c0,1.5,0.6,2.8,1.7,3.9c1.1,1,2.5,1.6,4.2,1.6c3.2,0,6.3-1.9,9.2-5.6C329.8,157.5,331.3,153.4,331.3,149.1z"/>
	<path class="st0" d="M531,109.1c0,1.5-0.2,3-0.5,4.4c-0.3,1.4-0.7,2.1-1,2.1c-0.3,0-0.4-0.1-0.4-0.3c0-0.2,0.1-0.3,0.1-0.5
		c0.6-1.3,0.9-3.2,0.9-5.4c0-5.1-2-9.5-6.1-13c-4.1-3.6-9.1-5.3-15-5.3c-9.5,0-19.3,4.7-29.2,14c-3.9,3.7-7.3,7.2-10.2,10.7
		c-2.7,3.3-8.1,10.2-16.1,20.8c-11.8,15.6-21.4,25.4-29,29.2c-3.4,1.7-5.6,2.6-6.5,2.6c-0.2,0-0.3-0.1-0.3-0.4c0,0,0.4-0.3,1.2-0.9
		c3.8-2.8,6.8-6.6,9-11.3c2.1-4.4,5.8-14.7,11.2-30.9c4.6-13.9,9.8-23.8,15.7-29.8c0.2-0.2,0.3-0.4,0.3-0.6
		c-0.5-0.2-1.6,0.7-3.4,2.5c-5.7,5.7-12.5,15.9-20.2,30.7c-4.8,9.1-9,16-12.6,20.7c-3.6,4.7-7.9,8.8-12.9,12.3
		c-8.2,5.9-16.4,8.8-24.6,8.8c-5.4,0-9.7-1.1-13.1-3.4c-3.4-2.3-5.1-5.2-5.1-8.7c0-2,0.6-3.7,1.7-5.1c1.2-1.4,2.6-2.1,4.3-2.1
		c2.5,0,3.8,1.2,3.8,3.7c0,1.3-0.4,2.4-1.2,3.3c-0.8,0.9-1.8,1.4-3,1.4c-1.9,0-2.8-1-2.8-3.1c0-0.8-0.2-1.2-0.5-1.2
		c-0.6,0-0.9,1.1-0.9,3.2c0,3.2,1.6,5.7,4.7,7.8c3.1,2,7.2,3,12.1,3c10.1,0,19.9-5.2,29.6-15.7c3.9-4.2,7.2-8.3,9.9-12.3
		c2.7-4,8.1-12.7,16.1-26c3.4-5.7,7.2-10.8,11.5-15.4c4.3-4.6,7.3-6.9,9.1-6.9c0.3,0,0.4,0.1,0.4,0.3c0,0.2-0.1,0.3-0.2,0.5
		c-3.6,3.9-6.8,11.3-9.7,22.3c-4.3,16-8.4,27.6-12.2,34.9c-3.8,7.1-8.6,12.5-14.6,16.1c-0.2,0-0.2,0.1-0.2,0.2c0,0,0.1,0.1,0.2,0.1
		c0.9,0,3-1.2,6.5-3.7c4.2-2.9,8-6.4,11.5-10.5c3.5-4.1,9.9-12.4,19.1-25.1c6.5-8.9,11.7-15.5,15.5-19.6c3.8-4.1,8.1-7.8,12.7-11
		c7.3-4.9,14.6-7.3,22-7.3c6.5,0,11.8,1.9,16,5.7C528.9,98.5,531,103.3,531,109.1z M439.4,105.9c0,0.9-1.1,2.5-3.3,5
		c-3.3,3.7-6.5,5.6-9.6,5.6c-2.1,0-3.9-0.8-5.4-2.3c-1.5-1.6-2.2-3.5-2.2-5.7c0-2.2,0.8-4.8,2.4-7.9c2-3.9,2.9-6.6,2.9-8.1
		c0-2-0.9-3.5-2.8-4.7c-1.8-1.2-4.3-1.8-7.3-1.8c-8.6,0-16.7,3.5-24.2,10.4c-7.5,6.9-11.3,14.3-11.3,22.1c0,4,1.2,7.3,3.7,9.9
		c2.5,2.6,5.7,3.8,9.6,3.8c3.5,0,7-1,10.6-3c3.6-2,6.4-4.5,8.6-7.7c0.2-0.2,0.3-0.3,0.3-0.3c0.3,0,0.5,0.2,0.5,0.5
		c0,0.8-1.2,2.3-3.7,4.4c-5.1,4.6-10.6,6.9-16.5,6.9c-4.2,0-7.6-1.3-10.2-4c-2.6-2.7-3.9-6.2-3.9-10.5c0-8.4,3.9-16,11.6-23.1
		c7.7-7,16.2-10.5,25.3-10.5c3.8,0,6.7,0.9,8.9,2.8c2.1,1.9,3.2,4.5,3.2,7.8c0,2.5-1.2,6.2-3.7,11.3c-0.8,1.8-1.3,3.2-1.3,4.2
		c0,2.9,1.6,4.4,4.7,4.4c1.9,0,4-0.9,6.3-2.7c2.3-1.8,4.2-4,5.6-6.7c0.2-0.4,0.4-0.6,0.6-0.6C439.3,105.4,439.4,105.6,439.4,105.9z
		 M503.2,93.4c0,0.2-0.5,0.6-1.6,1.1c-4.5,2.4-8.5,5.8-11.9,10.3c-3.4,4.5-7.3,11.4-11.7,20.7c-6.4,13.6-12.1,23.3-17.1,29.2
		c-5,5.9-11.2,10.2-18.6,12.8c3.4,0.5,6.1,0.8,7.9,0.8c5.9,0,10.7-1.3,14.2-3.8c3.6-2.5,8.6-8.2,15.1-17c0.4-0.5,0.8-0.8,1-0.8
		c0.2,0,0.2,0.2,0.2,0.3c0,0.4-1.8,2.9-5.4,7.5c-4.4,5.6-8.4,9.5-11.9,11.5c-3.5,2-7.8,3.1-12.9,3.1c-3.2,0-6.6-0.4-10.2-1.1
		c-2.6,0.9-5.2,1.3-7.9,1.3c-2,0-3.1-0.4-3.1-1.2c0-1,1.4-1.4,4.3-1.4c1.6,0,3.7,0.2,6.2,0.6h0.8c4.1-1.5,7.5-3.8,10.4-7
		c2.8-3.2,6.2-8.5,10.2-16.1c8-15.3,14.4-26.1,19.1-32.5c4.5-6.1,10-11.3,16.4-15.6c3.2-2.1,5.3-3.2,6.2-3.2
		C503,93.1,503.2,93.2,503.2,93.4z"/>
	<path class="st0" d="M520.1,148.7c0,0.8-2.8,4.6-8.4,11.2c-4.6,5.5-8.1,8.2-10.8,8.2c-1.8,0-3.2-0.7-4.3-2c-1.1-1.3-1.7-3-1.7-5
		c0-2.1,0.6-4.3,1.8-6.8c-3.9,5.4-6.8,9-8.8,10.9c-2,1.9-4,2.8-6,2.8c-2,0-3.8-0.9-5.1-2.6c-1.4-1.8-2.1-4-2.1-6.6
		c0-7.4,5.2-13.9,15.7-19.6c4.6-2.5,8.3-3.8,11.1-3.8c2.4,0,3.6,1.2,3.6,3.5c0,0.7-0.2,1.5-0.5,2.6l2.9-5.6c1.2,0.3,2.2,0.4,3.1,0.4
		c1,0,2.4-0.1,4-0.4l-10.2,16.9c-3.5,5.9-5.3,9.8-5.3,11.7c0,1.8,0.8,2.7,2.3,2.7c1.5,0,4-1.8,7.4-5.3c3.4-3.5,6.8-7.9,10.4-13
		c0.2-0.4,0.4-0.6,0.6-0.6C520,148.4,520.1,148.5,520.1,148.7z M504.2,139.2c0-1.9-0.9-2.8-2.6-2.8c-3.5,0-8.2,3.5-14,10.4
		c-5.8,6.9-8.6,12.5-8.6,16.8c0,2.5,1.1,3.8,3.4,3.8c2.7,0,7.3-4.4,13.8-13.2C501.5,146.8,504.2,141.9,504.2,139.2z"/>
	<path class="st0" d="M548.9,148.7c0,0.5-2.7,3.7-8.2,9.7c-5.9,6.5-11,9.7-15.2,9.7c-2.7,0-5-1-6.9-3.1c-1.9-2.1-2.9-4.5-2.9-7.4
		c0-3.2,1.3-6.6,3.9-10.1c2.6-3.5,6.1-6.5,10.6-9c3.7-2.2,6.8-3.2,9.1-3.2c2.8,0,4.3,1.7,4.3,5.1c0,2.7-0.9,5.3-2.7,8
		c-1.8,2.7-3.6,4-5.3,4c-1.7,0-2.6-0.9-2.6-2.6c0-2,1.8-3.9,5.3-5.7c2.7-1.3,4.1-3.1,4.1-5.3c0-1.7-0.9-2.6-2.8-2.6
		c-3.2,0-7.1,3.2-11.8,9.5c-4.7,6.4-7,11.7-7,16c0,3.6,1.7,5.4,5.1,5.4c5.3,0,12.5-6,21.6-18c0.5-0.6,0.9-0.9,1.1-0.9
		C548.8,148.4,548.9,148.5,548.9,148.7z"/>
	<path class="st0" d="M568.7,148.7c0,0.1-0.2,0.4-0.6,0.9l-2.5,3.4c-7.3,10.1-12.8,15.1-16.6,15.1c-1.8,0-3.3-0.6-4.5-1.9
		c-1.2-1.3-1.8-2.9-1.8-4.8c0-2.2,1.3-5.6,4-10.2l9-15.3c1.2,0.3,2.1,0.4,2.8,0.4c1,0,2.5-0.1,4.4-0.4l-13.1,21.5
		c-1.9,3.1-2.8,5.5-2.8,7.2c0,1.8,0.9,2.6,2.7,2.6c3.4,0,9.5-6.1,18.1-18.3c0.2-0.4,0.4-0.6,0.6-0.6
		C568.5,148.4,568.7,148.5,568.7,148.7z M582.8,118c-3.7,2.9-8.5,5.6-14.3,8.1c-4.5,1.9-7,2.9-7.7,2.9c-0.2,0-0.3,0-0.3-0.1
		c0-0.1,0.2-0.3,0.7-0.5c9-4.3,15.4-8.9,19.3-14L582.8,118z"/>
	<path class="st0" d="M609.4,148.7c0,0.8-2.8,4.6-8.4,11.2c-4.6,5.5-8.1,8.2-10.8,8.2c-1.8,0-3.2-0.7-4.3-2c-1.1-1.3-1.7-3-1.7-5
		c0-2.1,0.6-4.3,1.8-6.8c-3.9,5.4-6.8,9-8.8,10.9c-2,1.9-4,2.8-6,2.8c-2,0-3.8-0.9-5.1-2.6s-2.1-4-2.1-6.6c0-7.4,5.2-13.9,15.7-19.6
		c4.6-2.5,8.3-3.8,11.1-3.8c2.4,0,3.6,1.2,3.6,3.5c0,0.7-0.2,1.5-0.5,2.6l2.9-5.6c1.2,0.3,2.2,0.4,3.1,0.4c1,0,2.4-0.1,4-0.4
		l-10.2,16.9c-3.5,5.9-5.3,9.8-5.3,11.7c0,1.8,0.8,2.7,2.3,2.7c1.5,0,4-1.8,7.4-5.3c3.4-3.5,6.8-7.9,10.4-13
		c0.2-0.4,0.4-0.6,0.6-0.6C609.3,148.4,609.4,148.5,609.4,148.7z M593.5,139.2c0-1.9-0.9-2.8-2.6-2.8c-3.5,0-8.2,3.5-14,10.4
		c-5.8,6.9-8.6,12.5-8.6,16.8c0,2.5,1.1,3.8,3.4,3.8c2.7,0,7.3-4.4,13.8-13.2C590.8,146.8,593.5,141.9,593.5,139.2z"/>
	<path class="st0" d="M629,126.3c0,1.5-2.4,4.6-7.2,9.2c-0.2,1.2-0.3,2.2-0.3,3.1c0,2.2,1,5.8,3.1,10.6c1,2.4,1.6,4.5,1.6,6.1
		c0,3.5-1.7,6.5-5.1,9c-3.4,2.5-7.4,3.8-12,3.8c-2.6,0-4.7-0.7-6.3-2.2c-1.6-1.5-2.3-3.5-2.3-6c0-2.9,1-5.7,3.1-8.4
		c2.1-2.7,4.2-4.1,6.4-4.1c0.4,0,0.7,0.1,1,0.2l4.6-5.7c1.4-1.7,3.2-3.9,5.5-6.9c0.7-2.7,1.7-5,3-6.9c1.3-1.9,2.7-2.9,4-2.9
		C628.7,125.3,629,125.6,629,126.3z M621,149.1c0-1.2,0-2.3-0.1-3.4c-0.1-1.1-0.1-2.8-0.1-4.9c0-1.7,0.1-3.2,0.2-4.3
		c-2.2,2.7-5.3,6.6-9.4,11.6c0.7,0.6,1.1,1.4,1.1,2.3c0,2.3-1.9,3.8-5.6,4.6c-1.5,0.3-2.8,1.2-3.9,2.5c-1.1,1.3-1.6,2.6-1.6,4.1
		c0,1.5,0.6,2.8,1.7,3.9c1.1,1,2.5,1.6,4.2,1.6c3.2,0,6.3-1.9,9.2-5.6C619.5,157.5,621,153.4,621,149.1z"/>
</g>
</svg>
